<svg width="160" height="160" viewBox="0 0 160 160" fill="none" xmlns="http://www.w3.org/2000/svg">
<g id="Group 326">
<path id="Subtract" fill-rule="evenodd" clip-rule="evenodd" d="M79.7939 94.7435L77.5268 94.3736C70.4985 93.2267 65.1366 87.1638 65.1366 79.8522C65.1366 71.7247 71.7644 65.136 79.9403 65.136C87.706 65.136 94.0751 71.0801 94.6947 78.6411H89.8855C89.2844 73.712 85.061 69.8929 79.9403 69.8929C74.4072 69.8929 69.9218 74.3519 69.9218 79.8522C69.9218 84.7552 73.4878 88.8342 78.1824 89.6591L79.7939 89.9422L79.7939 94.7435Z" fill="white"/>
<path id="Subtract_2" fill-rule="evenodd" clip-rule="evenodd" d="M106.923 114.482L104.115 116.381C97.1448 121.097 88.7378 123.851 79.6906 123.851C55.5879 123.851 36.0488 104.312 36.0488 80.2091C36.0488 56.1064 55.5879 36.5673 79.6906 36.5673C103.077 36.5673 122.166 54.9613 123.281 78.0717L123.308 78.6411H118.299L118.275 78.1755C117.218 57.7826 100.347 41.572 79.6906 41.572C58.3519 41.572 41.0535 58.8704 41.0535 80.2091C41.0535 101.548 58.3519 118.846 79.6906 118.846C86.0455 118.846 92.0393 117.313 97.3249 114.597L97.5484 114.482H106.923Z" fill="white"/>
<path id="Subtract_3" fill-rule="evenodd" clip-rule="evenodd" d="M129.215 104.321L129.579 103.574L125.835 103.574L124.228 103.574L85.3197 103.574V108.768H121.082C112.008 121.894 96.8533 130.492 79.6909 130.492C51.9205 130.492 29.4082 107.979 29.4082 80.2091C29.4082 52.4388 51.9205 29.9265 79.6908 29.9264C106.769 29.9264 128.848 51.3308 129.932 78.1427L129.952 78.6412H134.741L134.721 78.1022C133.613 48.6645 109.399 25.1399 79.6908 25.1399C49.2769 25.1399 24.6216 49.7952 24.6216 80.2091C24.6216 110.623 49.277 135.278 79.6909 135.278C101.458 135.278 120.275 122.649 129.215 104.321Z" fill="white"/>
<path id="Subtract_4" fill-rule="evenodd" clip-rule="evenodd" d="M147.708 78.6411C146.88 41.7805 116.74 12.1541 79.6806 12.1541C42.1002 12.1541 11.6353 42.6191 11.6353 80.1995C11.6353 117.78 42.1002 148.245 79.6807 148.245C114.089 148.245 142.533 122.706 147.089 89.5492H142.366L84.8749 89.5493V94.7436L141.374 94.7436C134.801 122.732 109.674 143.57 79.6807 143.57C44.6822 143.57 16.3102 115.198 16.3102 80.1995C16.3102 45.2009 44.6821 16.829 79.6806 16.829C114.158 16.829 142.205 44.3626 143.032 78.6411H147.708Z" fill="white"/>
<path id="Subtract_5" fill-rule="evenodd" clip-rule="evenodd" d="M159.139 78.6411C158.308 35.4688 123.052 0.72662 79.6809 0.726624C35.7892 0.726625 0.208097 36.3078 0.208099 80.1994C0.208101 124.091 35.7893 159.672 79.6809 159.672C120.409 159.672 153.982 129.035 158.61 89.5492H153.109C148.513 126.011 117.39 154.212 79.6809 154.212C38.8048 154.212 5.66807 121.076 5.66806 80.1994C5.66806 39.3232 38.8048 6.18659 79.6809 6.18658C120.036 6.18658 152.848 38.4844 153.678 78.6411H159.139Z" fill="white"/>
<path id="Subtract_6" fill-rule="evenodd" clip-rule="evenodd" d="M80.1948 108.249L78.6874 108.197C63.6565 107.678 51.6314 95.3339 51.6314 80.1819C51.6314 64.7004 64.1857 52.1502 79.6722 52.1502C94.6415 52.1502 106.871 63.876 107.671 78.6411H102.922C102.129 66.4954 92.0227 56.8891 79.6722 56.8891C66.8037 56.8891 56.3718 67.3177 56.3718 80.1819C56.3718 92.7515 66.3318 102.996 78.7918 103.458L80.1948 103.51L80.1948 108.249Z" fill="white"/>
</g>
</svg>
