<svg width="37" height="35" viewBox="0 0 37 35" fill="none" xmlns="http://www.w3.org/2000/svg">
<g id="Frame 1704">
<path id="Vector" d="M5.99976 20.6496C6.84347 20.6103 7.55739 20.2829 8.1415 19.6674C8.72561 19.0519 9.02416 18.3185 9.02416 17.4673C9.02416 18.3185 9.30973 19.0519 9.89384 19.6674C10.4779 20.2829 11.1919 20.6103 12.0356 20.6496C11.1919 20.6888 10.4779 21.0162 9.89384 21.6317C9.61144 21.9219 9.3891 22.2659 9.23979 22.6436C9.09048 23.0213 9.01718 23.4253 9.02416 23.8319C9.02416 22.9806 8.73859 22.2473 8.1415 21.6317C7.55739 21.0162 6.84347 20.6888 5.99976 20.6496ZM9.02416 11.2205C10.6597 11.142 12.0486 10.5003 13.1908 9.29544C14.3331 8.09062 14.9042 6.66317 14.9042 5C14.9042 6.66317 15.4754 8.09062 16.6176 9.29544C17.7599 10.5003 19.1488 11.1289 20.7973 11.2205C19.7199 11.2729 18.7334 11.5741 17.8248 12.1503C16.9291 12.7135 16.2152 13.473 15.683 14.4159C15.1638 15.3588 14.9042 16.3672 14.9042 17.4673C14.9042 15.8041 14.3331 14.3635 13.1908 13.1587C12.0486 11.9408 10.6597 11.2991 9.02416 11.2205ZM13.3336 25.3248C14.5667 25.2724 15.6181 24.7878 16.4748 23.8842C17.3315 22.9806 17.7599 21.9068 17.7599 20.6496C17.7599 21.9068 18.1882 22.9806 19.0449 23.8842C19.9016 24.7878 20.94 25.2724 22.1732 25.3248C20.94 25.3772 19.9016 25.8617 19.0449 26.7653C18.1882 27.6689 17.7599 28.7428 17.7599 30C17.7599 28.7428 17.3315 27.6689 16.4748 26.7653C15.656 25.8874 14.5276 25.3699 13.3336 25.3248ZM22.1732 19.1173C23.4063 19.065 24.4447 18.5804 25.3014 17.6768C26.1581 16.7732 26.5735 15.6993 26.5735 14.429C26.5735 15.6862 27.0018 16.7601 27.8585 17.6637C28.7152 18.5673 29.7666 19.0519 30.9998 19.1042C29.7666 19.1566 28.7152 19.6412 27.8585 20.5448C27.0018 21.4484 26.5735 22.5223 26.5735 23.7795C26.5735 22.5223 26.1451 21.4484 25.3014 20.5448C24.4447 19.6543 23.4063 19.1697 22.1732 19.1173Z" fill="white"/>
</g>
</svg>
